<?xml version="1.0" encoding="UTF-8" standalone="no"?>
<svg width="1024px" height="1024px" viewBox="0 0 1024 1024" version="1.1" xmlns="http://www.w3.org/2000/svg" xmlns:xlink="http://www.w3.org/1999/xlink">
    <defs></defs>
    <g stroke="none" stroke-width="1" fill="none" fill-rule="evenodd">
        <g>
            <path d="M0,1024 L1024,1024 L1024,0 L0,0 L0,1024 Z" fill="#59CC00"></path>
            <path d="M546.620685,861.96623 C614.262501,847.56732 673.086311,811.251628 712.236479,759.672157 C751.613256,707.779139 766.419477,646.629162 753.829965,587.559952 C745.883912,550.2096 727.045758,515.654543 699.367183,487.630651 C697.609551,485.84284 696.673811,483.395572 696.796758,480.89693 C696.925623,478.39618 698.095063,476.057301 700.023562,474.454601 C757.157921,427.040247 784.136091,357.160875 770.251872,292.045515 C751.852493,205.614833 668.439556,145.4092 567.6888,145.4092 C550.174817,145.4092 532.433984,147.294184 514.952525,151.005189 C457.628525,163.22504 407.773143,194.01026 374.58616,237.732191 C341.168014,281.764162 328.598717,333.689524 339.296809,383.843264 C343.891719,405.469957 352.599677,425.729097 365.173677,444.045058 C366.56334,446.073895 367.058141,448.607441 366.533719,451.02197 C366.004039,453.428174 364.501535,455.519357 362.383712,456.787104 C272.093232,510.767613 226.122808,604.60065 245.557521,695.835915 C267.224575,797.635213 365.552883,868.581007 484.395371,868.5912 C505.074826,868.5912 526.007298,866.362397 546.620685,861.96623 Z M704.814687,305.987693 C716.124997,359.10804 688.694577,414.002817 634.618459,445.833259 C618.247081,455.457131 600.579332,462.334299 582.097565,466.277245 C578.323275,467.050946 576.160356,467.944389 574.587835,469.468104 C573.660363,470.366789 573.023532,471.419593 572.647679,472.587318 C572.409506,473.327288 572.326683,473.837322 572.226469,474.75658 C571.468881,481.487432 574.773588,485.237517 586.790477,490.303518 C602.940202,497.110322 615.599302,503.996547 626.676656,511.987263 C658.471626,534.918016 679.258733,565.959811 686.883084,601.825861 C705.681192,690.073641 637.214611,780.053849 533.860368,802.063861 C518.564243,805.333499 502.992626,806.9892 487.5668,806.9892 C400.094749,806.9892 328.215707,755.307299 312.504054,681.558368 C296.548645,606.693805 342.206194,529.768442 423.903081,494.593624 C436.222186,489.290169 449.152537,484.409281 457.361392,481.781092 C474.773546,476.197876 478.025665,474.08391 478.516936,466.643625 C478.756633,462.848105 476.719859,459.702609 473.134401,456.448649 C471.034007,454.54245 469.061652,453.106031 464.958769,450.319814 C453.074996,442.199093 444.346471,435.296537 438.017848,429.144891 C420.944264,412.504699 409.443495,392.019525 404.743589,369.902881 C397.388759,335.413443 406.264432,299.688582 429.8387,269.232702 C453.020747,239.269637 487.672297,218.083655 527.43964,209.611452 C539.746509,207.000287 552.246794,205.6752 564.5948,205.6752 C634.700614,205.6752 692.244898,247.025512 704.814687,305.987693 Z" fill="#FFFFFF"></path>
        </g>
    </g>
</svg>