<?xml version="1.0" encoding="UTF-8" standalone="no"?>
<!-- Created with Inkscape (http://www.inkscape.org/) -->

<svg
   xmlns:dc="http://purl.org/dc/elements/1.1/"
   xmlns:cc="http://creativecommons.org/ns#"
   xmlns:rdf="http://www.w3.org/1999/02/22-rdf-syntax-ns#"
   xmlns:svg="http://www.w3.org/2000/svg"
   xmlns="http://www.w3.org/2000/svg"
   xmlns:sodipodi="http://sodipodi.sourceforge.net/DTD/sodipodi-0.dtd"
   xmlns:inkscape="http://www.inkscape.org/namespaces/inkscape"
   width="744.09448819"
   height="1052.3622047"
   id="svg3131"
   version="1.1"
   inkscape:version="0.48.4 r9939"
   sodipodi:docname="Mivoq-logo-blue-noeffect.svg">
  <defs
     id="defs3133" />
  <sodipodi:namedview
     id="base"
     pagecolor="#ffffff"
     bordercolor="#ffffff"
     borderopacity="0.0"
     inkscape:pageopacity="0.0"
     inkscape:pageshadow="0"
     inkscape:zoom="0.35"
     inkscape:cx="350"
     inkscape:cy="520"
     inkscape:document-units="px"
     inkscape:current-layer="layer1"
     showgrid="false"
     inkscape:window-width="484"
     inkscape:window-height="449"
     inkscape:window-x="420"
     inkscape:window-y="287"
     inkscape:window-maximized="0" />
  <metadata
     id="metadata3136">
    <rdf:RDF>
      <cc:Work
         rdf:about="">
        <dc:format>image/svg+xml</dc:format>
        <dc:type
           rdf:resource="http://purl.org/dc/dcmitype/StillImage" />
        <dc:title />
      </cc:Work>
    </rdf:RDF>
  </metadata>
  <g
     inkscape:label="Layer 1"
     inkscape:groupmode="layer"
     id="layer1">
    <g
       transform="translate(-49.816436,383.81675)"
       id="MIVOQ_Blu">
      <g
         id="MIVOQ">
        <path
           style="fill:#383838"
           inkscape:connector-curvature="0"
           d="m 312.236,84.046 v -0.003 l -0.203,-2.333 c -0.025,-0.198 -0.113,-0.851 -0.14,-1.047 -0.016,-0.097 -0.36,-2.183 -0.558,-3.104 -0.082,-0.391 -0.172,-0.716 -0.195,-0.82 -0.142,-0.623 -0.302,-1.267 -0.484,-1.923 -0.02,-0.087 -0.049,-0.208 -0.09,-0.354 -0.014,-0.049 -0.029,-0.098 -0.044,-0.146 l -0.254,-0.82 c -0.05,-0.156 -0.099,-0.306 -0.145,-0.448 l -0.013,-0.036 c -0.002,-0.01 -0.011,-0.034 -0.021,-0.069 -0.019,-0.059 -0.043,-0.133 -0.073,-0.219 -0.002,-0.009 -0.006,-0.02 -0.009,-0.027 l -0.397,-1.12 c -0.116,-0.313 -0.234,-0.622 -0.353,-0.925 -0.101,-0.246 -0.187,-0.453 -0.265,-0.635 -0.21,-0.508 -0.438,-1.034 -0.683,-1.559 -0.046,-0.099 -0.13,-0.286 -0.233,-0.508 -0.322,-0.669 -0.65,-1.31 -1.001,-1.945 -0.111,-0.206 -0.222,-0.39 -0.261,-0.461 -0.272,-0.48 -0.563,-0.973 -0.869,-1.463 -0.097,-0.149 -0.204,-0.326 -0.339,-0.537 -0.368,-0.562 -0.759,-1.147 -1.188,-1.734 -0.025,-0.043 -0.063,-0.095 -0.102,-0.145 -1.067,-1.453 -2.211,-2.793 -3.433,-4.034 l -0.083,-0.08 -0.087,-0.085 c -0.534,-0.538 -1.142,-1.102 -1.762,-1.641 -0.058,-0.049 -0.134,-0.117 -0.248,-0.204 -1.216,-1.043 -2.54,-2.01 -3.921,-2.864 -0.106,-0.064 -0.213,-0.13 -0.326,-0.197 -0.659,-0.403 -1.368,-0.797 -2.103,-1.164 l -0.024,-0.014 -0.104,-0.045 c -0.657,-0.33 -1.358,-0.638 -2.053,-0.914 -0.033,-0.011 -0.192,-0.08 -0.38,-0.154 -0.712,-0.275 -1.445,-0.522 -2.187,-0.742 -0.166,-0.051 -0.318,-0.091 -0.42,-0.117 -0.627,-0.178 -1.323,-0.347 -2.028,-0.49 -0.019,-0.003 -0.02,-0.003 -0.02,-0.003 -0.048,-0.01 -0.157,-0.035 -0.291,-0.061 -0.777,-0.147 -1.546,-0.257 -2.313,-0.335 -0.192,-0.021 -0.369,-0.033 -0.511,-0.046 -0.743,-0.062 -1.541,-0.111 -2.382,-0.111 -0.843,0 -1.642,0.049 -2.389,0.113 -0.137,0.011 -0.314,0.022 -0.52,0.046 -0.755,0.076 -1.521,0.186 -2.287,0.329 -0.116,0.023 -0.19,0.039 -0.244,0.051 v 0.002 l -0.035,0.006 -0.032,0.006 c -0.72,0.146 -1.413,0.315 -2.094,0.506 -0.033,0.011 -0.197,0.052 -0.394,0.11 -0.718,0.214 -1.451,0.461 -2.174,0.74 -0.184,0.076 -0.317,0.131 -0.334,0.136 -0.735,0.296 -1.449,0.608 -2.168,0.964 l -0.013,0.005 c -0.773,0.386 -1.479,0.786 -2.156,1.192 -0.096,0.059 -0.188,0.115 -0.293,0.182 -1.344,0.828 -2.619,1.757 -3.832,2.781 -1.188,-1.008 -2.474,-1.945 -3.816,-2.775 -0.111,-0.066 -0.212,-0.13 -0.324,-0.194 -0.661,-0.402 -1.37,-0.8 -2.107,-1.167 l -0.024,-0.014 -0.099,-0.045 c -0.659,-0.328 -1.359,-0.635 -2.055,-0.914 -0.023,-0.009 -0.18,-0.078 -0.368,-0.152 -0.726,-0.277 -1.455,-0.524 -2.202,-0.744 -0.156,-0.049 -0.302,-0.088 -0.402,-0.114 -0.645,-0.181 -1.336,-0.35 -2.041,-0.493 l -0.028,-0.004 c -0.042,-0.009 -0.155,-0.034 -0.288,-0.062 -0.773,-0.146 -1.542,-0.255 -2.311,-0.333 -0.193,-0.021 -0.367,-0.033 -0.509,-0.046 -0.747,-0.062 -1.543,-0.111 -2.384,-0.111 -0.843,0 -1.641,0.049 -2.39,0.113 -0.137,0.011 -0.315,0.022 -0.518,0.046 -0.755,0.076 -1.522,0.186 -2.288,0.329 -0.187,0.038 -0.302,0.063 -0.302,0.063 -0.73,0.147 -1.423,0.316 -2.103,0.508 -0.049,0.016 -0.19,0.051 -0.355,0.099 -0.756,0.225 -1.487,0.473 -2.208,0.749 -0.182,0.074 -0.312,0.13 -0.357,0.147 -0.717,0.288 -1.432,0.599 -2.15,0.954 l -0.02,0.01 -0.074,0.041 c -0.688,0.342 -1.395,0.738 -2.074,1.146 -0.091,0.058 -0.185,0.111 -0.301,0.186 -1.403,0.868 -2.743,1.852 -4.014,2.936 l -0.063,0.053 -0.001,0.004 c -0.024,0.02 -0.058,0.048 -0.093,0.079 -0.634,0.55 -1.252,1.126 -1.855,1.729 l -0.033,0.034 c -0.028,0.029 -0.058,0.059 -0.09,0.094 -1.229,1.248 -2.365,2.588 -3.411,4.013 l -0.04,0.057 -0.02,0.025 -0.014,0.022 c -0.016,0.021 -0.036,0.048 -0.055,0.079 -0.372,0.512 -0.76,1.084 -1.132,1.655 -0.132,0.208 -0.248,0.389 -0.351,0.561 -0.3,0.477 -0.588,0.966 -0.866,1.453 -0.02,0.039 -0.131,0.223 -0.256,0.446 -0.353,0.649 -0.681,1.288 -0.996,1.948 -0.107,0.223 -0.198,0.425 -0.255,0.551 -0.23,0.492 -0.459,1.016 -0.68,1.547 -0.063,0.153 -0.152,0.363 -0.252,0.614 -0.172,0.438 -0.344,0.891 -0.51,1.352 h -0.007 l -0.098,0.296 c -0.052,0.146 -0.102,0.294 -0.152,0.442 -0.035,0.098 -0.062,0.192 -0.083,0.26 -0.007,0.021 -0.012,0.043 -0.016,0.055 -0.003,0.005 -0.004,0.009 -0.005,0.011 0,0.002 0,0.002 0,0.003 -0.13,0.394 -0.282,0.86 -0.432,1.377 -0.04,0.138 -0.074,0.263 -0.098,0.375 -0.18,0.649 -0.338,1.286 -0.479,1.906 -0.033,0.134 -0.117,0.451 -0.2,0.841 -0.191,0.902 -0.37,1.843 -0.512,2.825 -0.014,0.083 -0.03,0.183 -0.05,0.343 -0.13,0.906 -0.23,1.876 -0.302,2.843 -0.019,0.212 -0.025,0.403 -0.03,0.472 -0.062,0.926 -0.105,1.93 -0.105,2.972 l 0.002,0.151 -0.002,34.732 c 0.007,2.09 1.69,3.776 3.78,3.782 l 2.152,-0.003 c 2.087,-0.003 3.911,-1.689 3.916,-3.779 L 218.85,87.054 v -0.025 c 0.009,-7.673 2.632,-14.746 6.81,-19.854 4.184,-5.112 9.851,-8.234 16.062,-8.249 5.202,-0.008 10.124,2.643 14.1,6.445 v 56.541 c 0.007,2.09 1.69,3.776 3.78,3.782 l 2.152,-0.003 c 2.087,-0.003 3.773,-1.689 3.778,-3.779 V 65.374 c 3.987,-3.809 8.902,-6.461 14.107,-6.451 h 0.275 c 7.87,0.106 14.974,5.642 19.058,13.406 l 0.172,0.333 c 0.191,0.372 0.374,0.756 0.557,1.152 0.354,0.778 0.679,1.583 0.974,2.415 1.178,3.309 1.828,6.948 1.828,10.796 l 0.002,34.883 c 0.004,2.09 1.69,3.774 3.78,3.78 l 2.271,-0.001 c 2.087,-0.005 3.773,-1.689 3.778,-3.779 V 87.025 c 0.004,-1.036 -0.039,-2.03 -0.098,-2.979 z"
           id="M" />
        <g
           id="i">
          <path
             style="fill:#383838"
             inkscape:connector-curvature="0"
             id="path253"
             d="m 326.159,66.613 -1.748,0.001 v -0.001 c -2.09,0.006 -3.775,1.69 -3.782,3.781 v 51.515 c 0.007,2.089 1.691,3.774 3.782,3.779 h 1.748 c 2.088,-0.005 3.773,-1.69 3.78,-3.779 V 70.395 c -0.007,-2.091 -1.691,-3.776 -3.78,-3.782 z" />
          <circle
             d="m 331.556,54.895 c 0,3.4446 -2.7924,6.237 -6.237,6.237 -3.4446,0 -6.237,-2.7924 -6.237,-6.237 0,-3.4446 2.7924,-6.237 6.237,-6.237 3.4446,0 6.237,2.7924 6.237,6.237 z"
             style="fill:#383838"
             sodipodi:ry="6.237"
             sodipodi:rx="6.237"
             sodipodi:cy="54.895"
             sodipodi:cx="325.319"
             id="circle255"
             r="6.237"
             cy="54.895"
             cx="325.319" />
        </g>
        <path
           style="fill:#269ed9"
           inkscape:connector-curvature="0"
           d="m 426.422,51.363 c 0.013,-0.758 -0.326,-1.556 -0.925,-2.061 -0.591,-0.511 -1.35,-0.727 -2.097,-0.726 h -2.872 c -1.972,0.069 -3.704,1.186 -4.586,2.951 l -26.498,58.227 0,0 -0.771,1.693 c -0.146,0.241 -0.295,0.474 -0.449,0.708 -2.039,3.11 -4.085,4.264 -5.402,4.228 h -0.02 c -0.016,0 -0.04,0 -0.069,0 -0.009,0 -0.021,0 -0.036,0 -1.12,0.02 -2.749,-0.777 -4.477,-2.95 -0.463,-0.578 -0.924,-1.24 -1.38,-1.995 L 362.755,80.493 349.572,51.528 c -0.88,-1.766 -2.613,-2.882 -4.583,-2.951 h -3.083 c -0.744,-10e-4 -1.499,0.212 -2.091,0.721 -0.597,0.503 -0.938,1.3 -0.926,2.055 0,0.497 0.124,0.983 0.336,1.436 0,0 0.544,1.172 1.476,3.176 5.953,12.818 20.956,45.119 23.408,50.365 0.051,0.109 0.098,0.211 0.141,0.301 1.213,2.594 2.237,4.766 2.984,6.344 0.772,1.618 1.163,2.453 1.434,2.938 0.851,1.444 1.78,2.777 2.812,3.982 l 0.708,0.791 c 1.234,1.315 2.664,2.465 4.273,3.344 1.768,0.965 3.803,1.606 6.011,1.655 l 0.011,0.005 h 0.286 c 2.312,0 4.445,-0.655 6.29,-1.66 1.609,-0.881 3.038,-2.031 4.271,-3.344 1.353,-1.446 2.525,-3.094 3.57,-4.882 0.286,-0.509 0.694,-1.377 1.472,-3.001 0.699,-1.471 1.707,-3.624 2.934,-6.257 3.287,-7.083 7.219,-15.579 11.823,-25.567 5.521,-11.981 10.864,-23.612 12.974,-28.202 0.201,-0.451 0.319,-0.925 0.319,-1.414 z"
           id="v" />
        <path
           style="fill:#269ed9"
           inkscape:connector-curvature="0"
           d="m 460.398,48.309 c -21.382,0 -38.715,17.31 -38.715,38.663 0,21.353 17.333,38.664 38.715,38.664 21.382,0 38.715,-17.31 38.715,-38.664 0,-21.354 -17.333,-38.663 -38.715,-38.663 z m 0,68.435 c -16.464,0 -29.811,-13.329 -29.811,-29.771 0,-16.442 13.347,-29.771 29.811,-29.771 16.464,0 29.811,13.329 29.811,29.771 0,16.442 -13.347,29.771 -29.811,29.771 z"
           id="O" />
        <path
           style="fill:#269ed9"
           inkscape:connector-curvature="0"
           d="m 576.66,106.427 c 3.309,-5.68 5.207,-12.29 5.207,-19.331 -0.003,-21.25 -17.225,-38.475 -38.477,-38.475 -21.245,0 -38.47,17.225 -38.472,38.475 0.002,21.245 17.227,38.469 38.472,38.47 6.539,0 12.702,-1.636 18.096,-4.514 l 22.521,7.213 -7.347,-21.838 z m -16.812,5.629 c -4.726,3.125 -10.375,4.945 -16.457,4.945 -8.246,0 -15.717,-3.352 -21.137,-8.771 -5.421,-5.418 -8.771,-12.89 -8.771,-21.139 0,-8.246 3.35,-15.717 8.771,-21.137 5.42,-5.419 12.891,-8.771 21.137,-8.771 8.252,10e-4 15.721,3.353 21.143,8.771 5.417,5.42 8.771,12.891 8.771,21.137 0,6.549 -2.114,12.603 -5.697,17.534 l -0.399,0.555 3.284,9.766 -10.117,-3.238 -0.528,0.348 z"
           id="q" />
        <path
           style="fill:#269ed9"
           inkscape:connector-curvature="0"
           d="m 565.947,49.864 c 10.561,4.353 21.246,14.514 25.369,25.862 4.273,11.261 4.532,26.134 -5.768,42.634 l -3.612,-10.449 c 6.013,-9.702 7.854,-21.709 4.806,-32.545 -2.914,-10.873 -10.664,-20.243 -20.795,-25.502 z"
           id="s" />
      </g>
      <g
         id="voice_..._3_">
        <path
           style="fill:#9f9f9f"
           inkscape:connector-curvature="0"
           d="m 285.714,135.857 h 1.228 l 4.087,9.853 4.088,-9.853 h 1.228 l -4.702,11.14 h -1.227 l -4.702,-11.14 z"
           id="v_3_" />
        <path
           style="fill:#9f9f9f"
           inkscape:connector-curvature="0"
           d="m 300.685,141.451 c 0,-3.542 2.544,-5.798 5.701,-5.798 3.159,0 5.703,2.256 5.703,5.798 0,3.538 -2.544,5.701 -5.703,5.701 -3.157,0 -5.701,-2.163 -5.701,-5.701 z m 10.312,0 c 0,-2.888 -2.067,-4.76 -4.611,-4.76 -2.545,0 -4.61,1.872 -4.61,4.76 0,2.884 2.065,4.62 4.61,4.62 2.544,0 4.611,-1.736 4.611,-4.62 z"
           id="o_7_" />
        <path
           style="fill:#9f9f9f"
           inkscape:connector-curvature="0"
           d="m 319.153,132.228 c 0,1.173 -1.794,1.173 -1.794,0 0,-1.172 1.794,-1.172 1.794,0 z m -1.476,3.584 v 11.185 h 1.112 v -11.185 h -1.112 z"
           id="i_11_" />
        <path
           style="fill:#9f9f9f"
           inkscape:connector-curvature="0"
           d="m 334.193,145.439 c -1.135,1.127 -2.612,1.67 -4.088,1.67 -3.158,0 -5.77,-2.166 -5.77,-5.682 0,-3.519 2.522,-5.682 5.77,-5.682 1.477,0 2.953,0.563 4.088,1.667 l -0.727,0.698 c -0.909,-0.901 -2.157,-1.33 -3.361,-1.33 -2.544,0 -4.678,1.647 -4.678,4.646 0,2.996 2.133,4.644 4.678,4.644 1.204,0 2.431,-0.474 3.338,-1.375 l 0.75,0.744 z"
           id="c_3_" />
        <path
           style="fill:#9f9f9f"
           inkscape:connector-curvature="0"
           d="m 339.306,141.428 c 0,-3.337 2.544,-5.751 5.7,-5.751 3.156,0 5.974,1.918 5.543,6.271 H 340.44 c 0.229,2.612 2.25,4.124 4.566,4.124 1.477,0 3.202,-0.586 4.042,-1.69 l 0.796,0.63 c -1.092,1.421 -3.044,2.142 -4.838,2.142 -3.156,-0.002 -5.7,-2.188 -5.7,-5.726 z m 10.243,-0.453 c -0.024,-2.748 -1.839,-4.283 -4.543,-4.283 -2.316,0 -4.316,1.556 -4.566,4.283 h 9.109 z"
           id="e_7_" />
        <path
           style="fill:#9f9f9f"
           inkscape:connector-curvature="0"
           d="m 381.828,146.997 h -1.226 l -1.818,-4.872 -1.361,-4.328 -1.409,4.351 -1.818,4.85 h -1.225 l -3.999,-11.14 h 1.228 l 3.383,9.853 3.43,-9.853 h 0.795 l 3.408,9.853 3.361,-9.853 h 1.227 l -3.976,11.139 z"
           id="w_3_" />
        <path
           style="fill:#9f9f9f"
           inkscape:connector-curvature="0"
           d="m 392.12,132.228 c 0,1.173 -1.795,1.173 -1.795,0 0,-1.172 1.795,-1.172 1.795,0 z m -1.476,3.584 v 11.185 h 1.111 v -11.185 h -1.111 z"
           id="i_10_" />
        <path
           style="fill:#9f9f9f"
           inkscape:connector-curvature="0"
           d="m 410.999,131.212 v 6.72 c 0.907,-1.6 2.477,-2.209 4.044,-2.231 3.134,0 4.701,2.007 4.701,4.914 v 6.383 h -1.089 v -6.383 c 0,-2.299 -1.089,-3.854 -3.612,-3.854 -2.363,0 -3.999,1.804 -3.999,4.125 v 6.112 h -1.112 v -15.785 h 1.067 z"
           id="h_3_" />
        <path
           style="fill:#9f9f9f"
           inkscape:connector-curvature="0"
           d="m 447.06,135.653 c -3.156,0 -5.7,2.256 -5.7,5.798 0,0.034 0.004,0.065 0.004,0.101 h -0.004 v 9.071 h 0.983 v -5.798 c 1.023,1.488 2.751,2.327 4.717,2.327 3.159,0 5.7,-2.163 5.7,-5.701 0,-3.542 -2.541,-5.798 -5.7,-5.798 z m 0,10.418 c -2.545,0 -4.612,-1.736 -4.612,-4.62 0,-2.888 2.067,-4.76 4.612,-4.76 2.544,0 4.611,1.872 4.611,4.76 0,2.884 -2.067,4.62 -4.611,4.62 z"
           id="p_3_" />
        <path
           style="fill:#9f9f9f"
           inkscape:connector-curvature="0"
           d="m 497.379,141.451 c 0,-3.542 2.542,-5.798 5.701,-5.798 3.158,0 5.7,2.256 5.7,5.798 0,3.538 -2.542,5.701 -5.7,5.701 -3.159,0 -5.701,-2.163 -5.701,-5.701 z m 10.313,0 c 0,-2.888 -2.068,-4.76 -4.612,-4.76 -2.544,0 -4.611,1.872 -4.611,4.76 0,2.884 2.067,4.62 4.611,4.62 2.544,0 4.612,-1.736 4.612,-4.62 z"
           id="o_6_" />
        <path
           style="fill:#9f9f9f"
           inkscape:connector-curvature="0"
           d="m 457.491,141.428 c 0,-3.337 2.544,-5.751 5.7,-5.751 3.157,0 5.973,1.918 5.542,6.271 h -10.108 c 0.229,2.612 2.25,4.124 4.566,4.124 1.477,0 3.201,-0.586 4.042,-1.69 l 0.797,0.63 c -1.091,1.421 -3.044,2.142 -4.839,2.142 -3.156,-0.002 -5.7,-2.188 -5.7,-5.726 z m 10.24,-0.453 c -0.019,-2.748 -1.836,-4.283 -4.54,-4.283 -2.316,0 -4.316,1.556 -4.566,4.283 h 9.106 z"
           id="e_6_" />
        <path
           style="fill:#9f9f9f"
           inkscape:connector-curvature="0"
           d="m 479.177,135.653 c -0.003,0 -0.008,0.002 -0.013,0.002 -0.003,0 -0.006,-0.002 -0.009,-0.002 -1.689,0 -3.081,0.578 -3.977,1.636 -0.695,0.821 -1.091,1.931 -1.091,3.282 v 6.426 h 1.112 0.002 v -6.209 -0.193 c 0,-2.463 1.492,-3.798 3.817,-3.845 0.05,-0.004 0.095,-0.011 0.145,-0.011 0.052,0 0.098,0.007 0.147,0.011 0.232,0.002 0.454,0.03 0.67,0.061 v -1.104 c -0.257,-0.031 -0.525,-0.054 -0.803,-0.054 z"
           id="r_7_" />
        <path
           style="fill:#9f9f9f"
           inkscape:connector-curvature="0"
           d="m 550.241,146.997 c -0.005,0 -0.008,-0.002 -0.011,-0.002 -0.005,0 -0.01,0.002 -0.012,0.002 -1.688,0 -3.081,-0.578 -3.977,-1.637 -0.695,-0.82 -1.09,-1.93 -1.09,-3.281 v -10.206 h 1.112 10e-4 v 9.989 0.193 c 0,2.463 1.492,3.797 3.817,3.845 0.05,0.004 0.096,0.011 0.147,0.011 0.05,0 0.095,-0.007 0.145,-0.011 0.234,-0.002 0.455,-0.03 0.672,-0.062 v 1.105 c -0.259,0.032 -0.527,0.054 -0.804,0.054 z"
           id="r_6_" />
        <path
           style="fill:#9f9f9f"
           inkscape:connector-curvature="0"
           d="m 492.002,137.886 c -1.138,-0.992 -2.25,-1.172 -3.5,-1.172 -1.748,-0.022 -3.428,0.633 -3.386,2.052 0.047,1.489 2.001,1.782 3.409,2.03 2,0.338 4.748,0.675 4.633,3.268 -0.068,2.457 -2.633,3.113 -4.609,3.113 -1.976,0 -3.93,-0.745 -4.906,-2.233 l 0.817,-0.721 c 0.931,1.329 2.612,1.895 4.11,1.895 1.364,0 3.432,-0.36 3.499,-2.12 0.045,-1.601 -1.815,-1.918 -3.658,-2.21 -2.18,-0.359 -4.339,-0.767 -4.359,-2.998 -0.023,-2.187 2.18,-3.136 4.45,-3.112 1.635,0 3.068,0.453 4.182,1.488 l -0.682,0.72 z"
           id="s_3_" />
        <path
           style="fill:#9f9f9f"
           inkscape:connector-curvature="0"
           d="m 539.777,141.451 c 0,-3.542 -2.544,-5.798 -5.702,-5.798 -3.157,0 -5.701,2.256 -5.701,5.798 0,3.538 2.544,5.701 5.701,5.701 1.968,0 3.694,-0.839 4.719,-2.327 v 2.327 h 0.983 c 0,0 0,-5.563 0,-5.701 z m -5.702,4.62 c -2.544,0 -4.61,-1.736 -4.61,-4.62 0,-2.888 2.066,-4.76 4.61,-4.76 2.544,0 4.612,1.872 4.612,4.76 10e-4,2.884 -2.068,4.62 -4.612,4.62 z"
           id="a_3_" />
        <path
           style="fill:#9f9f9f"
           inkscape:connector-curvature="0"
           d="m 522.679,137.289 c -0.896,-1.058 -2.288,-1.636 -3.976,-1.636 -0.003,0 -0.008,0.002 -0.011,0.002 -0.005,0 -0.006,-0.002 -0.013,-0.002 -1.688,0 -3.079,0.578 -3.975,1.636 -0.695,0.821 -1.091,1.931 -1.091,3.282 v 6.426 h 1.114 l 0,0 v -6.209 -0.193 c 0,-2.463 1.494,-3.798 3.817,-3.845 0.052,-0.004 0.095,-0.011 0.146,-0.011 0.05,0 0.096,0.007 0.147,0.011 2.323,0.047 3.815,1.382 3.815,3.845 v 0.193 6.209 h 10e-4 1.113 v -6.426 c 0.004,-1.351 -0.391,-2.461 -1.087,-3.282 z"
           id="n_3_" />
        <path
           style="fill:#9f9f9f"
           inkscape:connector-curvature="0"
           d="m 556.77,132.228 c 0,1.173 -1.796,1.173 -1.796,0 0,-1.172 1.796,-1.172 1.796,0 z m -1.477,3.584 v 11.185 h 1.112 v -11.185 h -1.112 z"
           id="i_9_" />
        <path
           style="fill:#9f9f9f"
           inkscape:connector-curvature="0"
           d="m 403.711,145.9 c -0.05,0.004 -0.095,0.011 -0.146,0.011 -0.05,0 -0.096,-0.007 -0.146,-0.011 -2.323,-0.048 -3.816,-1.382 -3.816,-3.845 v -0.193 l -0.002,-6.025 h 3.839 v -0.983 h -3.839 v -3.642 h -1.112 v 10.867 c 0,1.352 0.395,2.461 1.091,3.281 0.896,1.059 2.287,1.637 3.976,1.637 0.004,0 0.007,-0.002 0.01,-0.002 0.005,0 0.01,0.002 0.013,0.002 0.278,0 0.545,-0.022 0.805,-0.053 v -1.105 c -0.218,0.031 -0.44,0.059 -0.673,0.061 z"
           id="t_7_" />
        <path
           style="fill:#9f9f9f"
           inkscape:connector-curvature="0"
           d="m 568.52,145.9 c -0.049,0.004 -0.096,0.011 -0.146,0.011 -0.052,0 -0.097,-0.007 -0.147,-0.011 -2.324,-0.048 -3.816,-1.382 -3.816,-3.845 v -0.193 l -0.002,-6.025 h 3.839 v -0.983 h -3.839 v -3.642 h -1.112 v 10.867 c 0,1.352 0.396,2.461 1.091,3.281 0.895,1.059 2.287,1.637 3.977,1.637 10e-4,0 0.006,-0.002 0.011,-0.002 0.003,0 0.008,0.002 0.011,0.002 0.278,0 0.545,-0.022 0.807,-0.053 v -1.105 c -0.22,0.031 -0.44,0.059 -0.674,0.061 z"
           id="t_6_" />
        <path
           style="fill:#9f9f9f"
           inkscape:connector-curvature="0"
           d="m 584.414,135.857 -6.836,15.782 h -1.181 l 2.067,-4.778 -4.496,-11.004 h 1.202 l 2.612,6.582 1.318,3.227 1.293,-3.246 2.816,-6.562 h 1.205 z"
           id="y_3_" />
        <circle
           d="m 219.732,139.87399 c 0,3.13146 -2.53855,5.67 -5.67,5.67 -3.13146,0 -5.67,-2.53854 -5.67,-5.67 0,-3.13145 2.53854,-5.67 5.67,-5.67 3.13145,0 5.67,2.53855 5.67,5.67 z"
           style="fill:#269ed9"
           sodipodi:ry="5.6700001"
           sodipodi:rx="5.6700001"
           sodipodi:cy="139.87399"
           sodipodi:cx="214.062"
           id="circle282"
           r="5.6700001"
           cy="139.87399"
           cx="214.062" />
        <circle
           d="m 245.058,139.87399 c 0,2.50517 -2.03083,4.536 -4.536,4.536 -2.50516,0 -4.536,-2.03083 -4.536,-4.536 0,-2.50516 2.03084,-4.536 4.536,-4.536 2.50517,0 4.536,2.03084 4.536,4.536 z"
           style="fill:#269ed9"
           sodipodi:ry="4.5359998"
           sodipodi:rx="4.5359998"
           sodipodi:cy="139.87399"
           sodipodi:cx="240.522"
           id="circle284"
           r="4.5359998"
           cy="139.87399"
           cx="240.522" />
        <circle
           d="m 270.38399,139.87399 c 0,1.87888 -1.52312,3.402 -3.402,3.402 -1.87887,0 -3.402,-1.52312 -3.402,-3.402 0,-1.87887 1.52313,-3.402 3.402,-3.402 1.87888,0 3.402,1.52313 3.402,3.402 z"
           style="fill:#269ed9"
           sodipodi:ry="3.402"
           sodipodi:rx="3.402"
           sodipodi:cy="139.87399"
           sodipodi:cx="266.98199"
           id="circle286"
           r="3.402"
           cy="139.87399"
           cx="266.98199" />
      </g>
    </g>
  </g>
</svg>
